<?xml version="1.0" encoding="utf-8"?>
<!-- Generator: Adobe Illustrator 23.0.0, SVG Export Plug-In . SVG Version: 6.00 Build 0)  -->
<svg version="1.1" id="Layer_1" xmlns="http://www.w3.org/2000/svg" xmlns:xlink="http://www.w3.org/1999/xlink" x="0px" y="0px"
	 viewBox="0 0 4355 1288" style="enable-background:new 0 0 4355 1288;" xml:space="preserve">
<style type="text/css">
	.st0{fill:#C7C3BF;}
	.st1{fill:#0055A5;}
	.st2{fill:#FFFFFF;}
	.st3{fill:none;stroke:#0055A5;stroke-width:22;stroke-miterlimit:10;}
	.st4{font-family:'ArialMT';}
	.st5{font-size:476.2804px;}
	.st6{fill:#656766;}
	.st7{font-size:264.6002px;}
	.st8{fill:#0057A5;stroke:#FFFFFF;stroke-width:3;stroke-miterlimit:10;}
	.st9{fill:#0055A5;stroke:#FFFFFF;stroke-width:0.25;stroke-miterlimit:10;}
</style>
<polygon class="st0" points="181,1121.5 458,926.2 620.2,994.7 410.1,1155.1 "/>
<polygon class="st1" points="615.8,760.5 780.8,760.5 780.8,1025.9 952.9,1047.4 952.9,667.2 687.5,308.5 472.3,624.2 472.3,925.5 
	622.9,990.1 "/>
<polygon class="st2" points="630.1,487.9 773.6,487.9 773.6,674.4 637.3,660 "/>
<polygon class="st1" points="967.3,1033.1 967.3,674.4 1067.7,796.4 1074.9,875.3 "/>
<g>
	<g>
		<path class="st0" d="M1139.1,643.5c-3.7,6.5-8,12.6-12.7,18.4c119.7,80.6,157.3,179.6,109.9,260c-70.3,119.2-330,122-579.2,72.4
			C397,929.1,231.9,742.5,315.8,634.5c38.1-64.1,76.1-74.5,142.8-93.7c7-11.3,15.7-21.6,25.6-30.6c-97,17.9-171.7,56.3-205.1,113
			c-75.8,128.6,89,302.3,368.1,388c279.1,85.7,566.7,51,642.5-77.6C1342.6,843.8,1278,732,1139.1,643.5z"/>
	</g>
</g>
<g>
	<path class="st3" d="M407.7,631.4l272.6-380.2c0,0,0,0,0,0L1067.7,739"/>
</g>
<polygon class="st1" points="691.2,212.2 883.8,137.4 1205.6,526.8 1086.7,715.3 "/>
<text transform="matrix(1 0 0 1 1457.2715 861.4492)"><tspan x="0" y="0" class="st1 st4 st5">Shop</tspan><tspan x="1112.3" y="0" class="st6 st4 st5">Prop.</tspan><tspan x="2250.7" y="0" class="st6 st4 st7">com</tspan></text>
<polygon class="st8" points="856.1,292.9 905.4,342.6 935,330.2 935,168.6 856.1,168.6 "/>
<line class="st9" x1="900.8" y1="168.9" x2="903" y2="340.3"/>
</svg>
